<svg width="20" height="20" viewBox="0 0 20 20" fill="none" xmlns="http://www.w3.org/2000/svg">
<path d="M10 0C7.28416 0 6.94362 0.0115116 5.87701 0.0601777C4.81263 0.108764 4.08569 0.277786 3.44958 0.525007C2.79199 0.780564 2.23432 1.1225 1.67839 1.67843C1.12246 2.23436 0.780524 2.79203 0.524967 3.44962C0.277746 4.08569 0.108725 4.81263 0.060138 5.87701C0.0114719 6.94362 0 7.28416 0 10C0 12.7158 0.0114719 13.0564 0.060138 14.123C0.108725 15.1874 0.277746 15.9143 0.524967 16.5504C0.780524 17.208 1.12246 17.7656 1.67839 18.3216C2.23432 18.8775 2.79199 19.2195 3.44958 19.475C4.08569 19.7222 4.81263 19.8913 5.87701 19.9398C6.94362 19.9885 7.28416 20 10 20C12.7158 20 13.0564 19.9885 14.123 19.9398C15.1874 19.8913 15.9143 19.7222 16.5504 19.475C17.208 19.2195 17.7656 18.8775 18.3216 18.3216C18.8775 17.7656 19.2195 17.208 19.475 16.5504C19.7222 15.9143 19.8913 15.1874 19.9398 14.123C19.9885 13.0564 20 12.7158 20 10C20 7.28416 19.9885 6.94362 19.9398 5.87701C19.8913 4.81263 19.7222 4.08569 19.475 3.44962C19.2195 2.79203 18.8775 2.23436 18.3216 1.67843C17.7656 1.1225 17.208 0.780564 16.5504 0.525007C15.9143 0.277786 15.1874 0.108764 14.123 0.0601777C13.0564 0.0115116 12.7158 0 10 0ZM10 1.80184C12.6701 1.80184 12.9864 1.812 14.0409 1.86011C15.0158 1.90461 15.5453 2.06752 15.8977 2.20443C16.3645 2.38583 16.6976 2.60257 17.0475 2.95248C17.3975 3.30239 17.6142 3.63555 17.7956 4.10229C17.9325 4.45466 18.0954 4.98415 18.1399 5.95914C18.188 7.0136 18.1982 7.32989 18.1982 10C18.1982 12.6701 18.188 12.9864 18.1399 14.0409C18.0954 15.0158 17.9325 15.5453 17.7956 15.8977C17.6142 16.3645 17.3975 16.6976 17.0475 17.0475C16.6976 17.3975 16.3645 17.6142 15.8977 17.7956C15.5453 17.9325 15.0158 18.0954 14.0409 18.1399C12.9866 18.188 12.6703 18.1982 10 18.1982C7.32969 18.1982 7.01348 18.188 5.95914 18.1399C4.98415 18.0954 4.45466 17.9325 4.10229 17.7956C3.63551 17.6142 3.30239 17.3975 2.95244 17.0475C2.60253 16.6976 2.38579 16.3645 2.20443 15.8977C2.06748 15.5453 1.90457 15.0158 1.86007 14.0409C1.81196 12.9864 1.8018 12.6701 1.8018 10C1.8018 7.32989 1.81196 7.0136 1.86007 5.95914C1.90457 4.98415 2.06748 4.45466 2.20443 4.10229C2.38579 3.63555 2.60253 3.30239 2.95244 2.95248C3.30239 2.60257 3.63551 2.38583 4.10229 2.20443C4.45466 2.06752 4.98415 1.90461 5.95914 1.86011C7.0136 1.812 7.32989 1.80184 10 1.80184Z" fill="#161513"/>
<path d="M9.99941 13.3333C8.15843 13.3333 6.66606 11.841 6.66606 10C6.66606 8.15904 8.15843 6.66667 9.99941 6.66667C11.8403 6.66667 13.3327 8.15904 13.3327 10C13.3327 11.841 11.8403 13.3333 9.99941 13.3333ZM9.99941 4.86487C7.16332 4.86487 4.86426 7.16393 4.86426 10C4.86426 12.8361 7.16332 15.1351 9.99941 15.1351C12.8355 15.1351 15.1345 12.8361 15.1345 10C15.1345 7.16393 12.8355 4.86487 9.99941 4.86487Z" fill="#161513"/>
<path d="M16.5387 4.66202C16.5387 5.32477 16.0014 5.862 15.3387 5.862C14.6759 5.862 14.1387 5.32477 14.1387 4.66202C14.1387 3.99927 14.6759 3.46204 15.3387 3.46204C16.0014 3.46204 16.5387 3.99927 16.5387 4.66202Z" fill="#161513"/>
</svg>
