<svg width="20" height="20" viewBox="0 0 20 20" fill="none" xmlns="http://www.w3.org/2000/svg">
<g clip-path="url(#clip0_130_294)">
<path d="M18.4886 -0.0528564C19.3042 -0.0528564 19.9684 0.592964 19.9684 1.38957V18.5087C19.9684 19.3053 19.3042 19.9523 18.4886 19.9523H1.43937C0.625351 19.9523 -0.0361328 19.3053 -0.0361328 18.5087V1.38957C-0.0361328 0.592964 0.625351 -0.0528564 1.43937 -0.0528564H18.4886V-0.0528564ZM17.0109 16.9936V11.7579C17.0109 9.18671 16.4557 7.20996 13.4515 7.20996C12.0079 7.20996 11.0398 8.00148 10.6442 8.75199H10.6036V7.44687H7.75938V16.9936H10.7229V12.2718C10.7229 11.0264 10.9585 9.81972 12.5023 9.81972C14.025 9.81972 14.0441 11.244 14.0441 12.351V16.9936H17.0109V16.9936ZM5.89801 7.44687H2.92793V16.9936H5.89801V7.44687ZM4.41375 2.70121C3.46082 2.70121 2.69242 3.4721 2.69242 4.42179C2.69242 5.37171 3.46082 6.14257 4.41375 6.14257C5.36293 6.14257 6.13352 5.37171 6.13352 4.42179C6.13352 3.4721 5.36293 2.70121 4.41375 2.70121V2.70121Z" fill="#161513"/>
</g>
<defs>
<clipPath id="clip0_130_294">
<rect width="20" height="20" fill="white"/>
</clipPath>
</defs>
</svg>
