<svg width="20" height="21" viewBox="0 0 20 21" fill="none" xmlns="http://www.w3.org/2000/svg">
<path d="M17.4897 20.3107H2.4824C2.1549 20.3178 1.82938 20.2579 1.52574 20.1345C1.2221 20.011 0.946713 19.8268 0.716414 19.5929C0.482766 19.3622 0.298759 19.0858 0.175779 18.7808C0.0527982 18.4759 -0.00653878 18.1488 0.00143937 17.8199V2.8106C-0.00989247 2.4821 0.0457819 2.15473 0.165044 1.84861C0.284305 1.54248 0.464637 1.26406 0.694965 1.03045C0.927756 0.793882 1.20663 0.608042 1.51418 0.484538C1.82172 0.361034 2.15132 0.302519 2.4824 0.312645H17.4969C17.8279 0.302949 18.1574 0.361663 18.4649 0.485142C18.7723 0.608621 19.0513 0.794231 19.2843 1.03045C19.5167 1.26057 19.7 1.53583 19.8229 1.83943C19.9459 2.14303 20.0059 2.46859 19.9993 2.79625V17.8055C20.0073 18.1345 19.9479 18.4615 19.825 18.7665C19.702 19.0714 19.518 19.3478 19.2843 19.5785C19.0517 19.8182 18.7721 20.007 18.4633 20.133C18.1544 20.259 17.823 20.3195 17.4897 20.3107V20.3107ZM13.6432 15.4942C13.7853 15.507 13.9271 15.4652 14.0398 15.3773C14.1525 15.2894 14.228 15.1619 14.2509 15.0205L16.2314 5.50955C16.237 5.44825 16.2284 5.38647 16.206 5.32913C16.1837 5.2718 16.1483 5.22051 16.1027 5.17936C16.0233 5.10376 15.9189 5.0603 15.8095 5.05733C15.7714 5.05733 11.8319 6.51926 3.991 9.44312C3.90251 9.47146 3.82582 9.52833 3.77282 9.60491C3.71981 9.68148 3.69347 9.77348 3.69786 9.86662C3.70285 9.95359 3.73536 10.0367 3.79066 10.1038C3.84595 10.171 3.92115 10.2186 4.0053 10.2399L6.8652 11.13L8.01631 14.597C8.04639 14.6914 8.10705 14.7731 8.18866 14.8291C8.27026 14.885 8.36814 14.9119 8.46674 14.9056C8.52011 14.9054 8.5729 14.8945 8.62201 14.8736C8.67112 14.8526 8.71557 14.822 8.75273 14.7836L10.3757 13.2331L13.3 15.3865C13.4019 15.4544 13.5209 15.4918 13.6432 15.4942V15.4942ZM8.4167 13.7428L7.55158 10.8715C11.708 8.21567 13.8005 6.88773 13.8291 6.88773C13.9363 6.88773 13.9935 6.88773 13.9935 7.00258C13.9959 7.01684 13.9959 7.0314 13.9935 7.04565C13.9935 7.04565 12.1989 8.6966 8.61689 11.9267L8.4167 13.7428Z" fill="#161513"/>
</svg>
